<mxfile host="app.diagrams.net" modified="2022-05-13T21:00:03.861Z" agent="5.0 (Windows NT 10.0; Win64; x64) AppleWebKit/537.36 (KHTML, like Gecko) Chrome/101.0.4951.54 Safari/537.36" etag="s8SFnEZSv8w7vBGoPD7m" version="18.0.2" type="github">
  <diagram id="KVkmmPwVQmfWWxQEtupK" name="Page-1">
    <mxGraphModel dx="884" dy="1111" grid="1" gridSize="10" guides="1" tooltips="1" connect="1" arrows="1" fold="1" page="1" pageScale="1" pageWidth="827" pageHeight="1169" math="0" shadow="0">
      <root>
        <mxCell id="0" />
        <mxCell id="1" parent="0" />
        <mxCell id="FUJfKl6aa2QapM7-k-7x-1" value="AppPage" style="rounded=0;whiteSpace=wrap;html=1;verticalAlign=top;fontSize=18;" vertex="1" parent="1">
          <mxGeometry x="200" y="150" width="500" height="660" as="geometry" />
        </mxCell>
        <mxCell id="FUJfKl6aa2QapM7-k-7x-2" value="Section" style="rounded=0;whiteSpace=wrap;html=1;verticalAlign=top;fontSize=18;" vertex="1" parent="1">
          <mxGeometry x="220" y="190" width="460" height="590" as="geometry" />
        </mxCell>
        <mxCell id="FUJfKl6aa2QapM7-k-7x-3" value="ListSection" style="rounded=0;whiteSpace=wrap;html=1;verticalAlign=top;fontSize=18;" vertex="1" parent="1">
          <mxGeometry x="230" y="230" width="440" height="540" as="geometry" />
        </mxCell>
        <mxCell id="FUJfKl6aa2QapM7-k-7x-4" value="List" style="rounded=0;whiteSpace=wrap;html=1;verticalAlign=top;fontSize=18;fillColor=#f5f5f5;fontColor=#333333;strokeColor=#666666;" vertex="1" parent="1">
          <mxGeometry x="240" y="270" width="420" height="130" as="geometry" />
        </mxCell>
        <mxCell id="FUJfKl6aa2QapM7-k-7x-5" value="ImageCard" style="rounded=0;whiteSpace=wrap;html=1;fontSize=18;" vertex="1" parent="1">
          <mxGeometry x="260" y="320" width="120" height="60" as="geometry" />
        </mxCell>
        <mxCell id="FUJfKl6aa2QapM7-k-7x-8" value="List" style="rounded=0;whiteSpace=wrap;html=1;verticalAlign=top;fontSize=18;fillColor=#f5f5f5;fontColor=#333333;strokeColor=#666666;" vertex="1" parent="1">
          <mxGeometry x="240" y="415" width="420" height="130" as="geometry" />
        </mxCell>
        <mxCell id="FUJfKl6aa2QapM7-k-7x-9" value="MinimalCardOuter" style="rounded=0;whiteSpace=wrap;html=1;fontSize=18;" vertex="1" parent="1">
          <mxGeometry x="260" y="465" width="160" height="60" as="geometry" />
        </mxCell>
        <mxCell id="FUJfKl6aa2QapM7-k-7x-10" value="List" style="rounded=0;whiteSpace=wrap;html=1;verticalAlign=top;fontSize=18;fillColor=#f5f5f5;fontColor=#333333;strokeColor=#666666;" vertex="1" parent="1">
          <mxGeometry x="240" y="560" width="420" height="130" as="geometry" />
        </mxCell>
        <mxCell id="FUJfKl6aa2QapM7-k-7x-11" value="MinimalCardOuter" style="rounded=0;whiteSpace=wrap;html=1;fontSize=18;" vertex="1" parent="1">
          <mxGeometry x="260" y="610" width="160" height="60" as="geometry" />
        </mxCell>
        <mxCell id="FUJfKl6aa2QapM7-k-7x-12" value="MinimalCardOuter" style="rounded=0;whiteSpace=wrap;html=1;fontSize=18;" vertex="1" parent="1">
          <mxGeometry x="430" y="465" width="160" height="60" as="geometry" />
        </mxCell>
        <mxCell id="FUJfKl6aa2QapM7-k-7x-13" value="MinimalCardOuter" style="rounded=0;whiteSpace=wrap;html=1;fontSize=18;" vertex="1" parent="1">
          <mxGeometry x="430" y="610" width="160" height="60" as="geometry" />
        </mxCell>
        <mxCell id="FUJfKl6aa2QapM7-k-7x-15" value="Personalization" style="rounded=0;whiteSpace=wrap;html=1;verticalAlign=top;fontSize=18;" vertex="1" parent="1">
          <mxGeometry x="730" y="150" width="320" height="320" as="geometry" />
        </mxCell>
        <mxCell id="FUJfKl6aa2QapM7-k-7x-16" value="Pages" style="rounded=0;whiteSpace=wrap;html=1;verticalAlign=top;fontSize=18;" vertex="1" parent="1">
          <mxGeometry x="730" y="490" width="320" height="320" as="geometry" />
        </mxCell>
        <mxCell id="FUJfKl6aa2QapM7-k-7x-17" value="Delete: Not Updated" style="rounded=0;whiteSpace=wrap;html=1;fontSize=18;fillColor=#f8cecc;strokeColor=#b85450;" vertex="1" parent="1">
          <mxGeometry x="800" y="585" width="180" height="60" as="geometry" />
        </mxCell>
        <mxCell id="FUJfKl6aa2QapM7-k-7x-19" value="Delete: Updated" style="rounded=0;whiteSpace=wrap;html=1;fontSize=18;" vertex="1" parent="1">
          <mxGeometry x="810" y="230" width="160" height="60" as="geometry" />
        </mxCell>
        <mxCell id="FUJfKl6aa2QapM7-k-7x-20" value="Add: Updated" style="rounded=0;whiteSpace=wrap;html=1;fontSize=18;" vertex="1" parent="1">
          <mxGeometry x="800" y="660" width="180" height="60" as="geometry" />
        </mxCell>
        <mxCell id="FUJfKl6aa2QapM7-k-7x-21" value="Add: Updated" style="rounded=0;whiteSpace=wrap;html=1;fontSize=18;" vertex="1" parent="1">
          <mxGeometry x="810" y="305" width="160" height="60" as="geometry" />
        </mxCell>
        <mxCell id="FUJfKl6aa2QapM7-k-7x-23" value="&lt;b&gt;Possible Solution 1&lt;/b&gt;&lt;br&gt;&lt;br&gt;ListSection:&lt;br&gt;&lt;br&gt;If it&#39;s Favorite Section, check data from personalization." style="rounded=0;whiteSpace=wrap;html=1;verticalAlign=top;fontSize=18;" vertex="1" parent="1">
          <mxGeometry x="200" y="840" width="420" height="140" as="geometry" />
        </mxCell>
        <mxCell id="FUJfKl6aa2QapM7-k-7x-24" value="&lt;b&gt;Possible Solution 2&lt;/b&gt;&lt;br&gt;&lt;br&gt;ListSection:&lt;br&gt;&lt;br&gt;When delete, update the page section as well." style="rounded=0;whiteSpace=wrap;html=1;verticalAlign=top;fontSize=18;" vertex="1" parent="1">
          <mxGeometry x="640" y="840" width="410" height="140" as="geometry" />
        </mxCell>
        <mxCell id="FUJfKl6aa2QapM7-k-7x-25" value="&lt;b&gt;In this case,&lt;/b&gt;&lt;br&gt;&lt;br&gt;Figure out how page gets those data to display&lt;br&gt;and fix them or updating them each time" style="rounded=0;whiteSpace=wrap;html=1;verticalAlign=top;fontSize=18;" vertex="1" parent="1">
          <mxGeometry x="640" y="1000" width="410" height="130" as="geometry" />
        </mxCell>
        <mxCell id="FUJfKl6aa2QapM7-k-7x-26" value="&lt;b&gt;Possible Solution 3&lt;/b&gt;&lt;br&gt;&lt;br&gt;Somehow refresh it or cause the whole system to get the data and reload (mutation)" style="rounded=0;whiteSpace=wrap;html=1;verticalAlign=top;fontSize=18;" vertex="1" parent="1">
          <mxGeometry x="200" y="1000" width="420" height="130" as="geometry" />
        </mxCell>
      </root>
    </mxGraphModel>
  </diagram>
</mxfile>
